<?xml version="1.0" encoding="UTF-8"?>
<svg xmlns="http://www.w3.org/2000/svg" version="1.1" viewBox="0 0 599.3 469.1">
  <defs>
    <style>
      .cls-1, .cls-2 {
        isolation: isolate;
      }

      .cls-3, .cls-2 {
        fill: #fff;
      }

      .cls-2 {
        font-family: HelveticaNeue-Light, 'Helvetica Neue';
        font-size: 53.2px;
        font-weight: 300;
        letter-spacing: .5em;
      }
    </style>
  </defs>
  <!-- Generator: Adobe Illustrator 28.7.2, SVG Export Plug-In . SVG Version: 1.2.0 Build 154)  -->
  <g>
    <g id="Layer_1">
      <g id="Layer_1-2" data-name="Layer_1">
        <g id="Layer_1-2">
          <g>
            <path class="cls-3" d="M181.3,5.3h57.7c6.1,0,10.4,1.9,14.7,6.1l16.1,16.1c4.3,4.3,6.1,8.5,6.1,14.7v103.1c0,6.1-1.9,10.4-6.1,14.7l-12.1,12.1c-6.7,6.7-6.8,13.5-.2,20.3,9.9,10.1,12.3,12.6,12.3,12.6,4.3,4.3,6.1,8.5,6.1,14.7v108.3c0,6.1-1.9,10.4-6.1,14.7l-16.1,16.1c-4.3,4.3-8.5,6.1-14.7,6.1h-57.2c-6.1,0-10.4-1.9-14.7-6.1l-16.1-16.1c-4.3-4.3-6.1-8.5-6.1-14.7v-50.6c0-7.6,4.3-11.8,11.8-11.8h21.8c7.6,0,11.8,4.3,11.8,11.8v40.2l9.5,9.5h21.3l9.5-9.5v-106l-9.5-9.5h-28.4c-7.6,0-11.8-4.3-11.8-11.8v-16.1c0-7.6,4.3-11.8,11.8-11.8h28.4l9.5-9.5V52.6l-9.5-9.5h-21.8l-9.5,9.5v40.2c0,7.6-4.3,11.8-11.8,11.8h-21.8c-7.6,0-11.8-4.3-11.8-11.8v-50.6c0-6.1,1.9-10.4,6.1-14.7l16.1-16.1c4.3-4.3,8.5-6.1,14.7-6.1h0Z"/>
            <path class="cls-3" d="M339.3,5.3h56.8c6.1,0,10.4,1.9,14.7,6.1l16.1,16.1c4.3,4.3,6.1,8.5,6.1,14.7v102.6c0,6.1-1.9,10.4-6.1,14.7,0,0-1.9,2-12.1,12.1-6.8,6.7-6.8,13.5,0,20.3,10.2,10.2,12.1,12.1,12.1,12.1,4.3,4.3,6.1,8.5,6.1,14.7v109.3c0,6.1-1.9,10.4-6.1,14.7l-16.1,16.1c-4.3,4.3-8.5,6.1-14.7,6.1h-56.8c-6.1,0-10.4-1.9-14.7-6.1l-16.1-16.1c-4.3-4.3-6.1-8.5-6.1-14.7v-109.3c0-6.1,1.9-10.4,6.1-14.7,0,0,2.1-1.9,12.1-12.1,6.7-6.8,6.7-13.6,0-20.3-10-10.1-12.1-12.1-12.1-12.1-4.3-4.3-6.1-8.5-6.1-14.7V42.2c0-6.1,1.9-10.4,6.1-14.7l16.1-16.1c4.3-4.3,8.5-6.1,14.7-6.1ZM378.1,44.1h-20.8l-9.5,9.5v99.3l9.5,9.5h20.8l9.5-9.5V53.6l-9.5-9.5ZM378.1,201.1h-20.8l-9.5,9.5v106l9.5,9.5h20.8l9.5-9.5v-106l-9.5-9.5Z"/>
          </g>
          <g class="cls-1">
            <g class="cls-1">
              <text class="cls-2" transform="translate(2.8 463.8)"><tspan x="0" y="0">THIRTYEIGHT</tspan></text>
            </g>
          </g>
        </g>
      </g>
    </g>
  </g>
</svg>