<?xml version="1.0" encoding="UTF-8"?>
<svg xmlns="http://www.w3.org/2000/svg" version="1.1" viewBox="0 0 581.4 469.1">
  <defs>
    <style>
      .cls-1, .cls-2 {
        fill: #fff;
      }

      .cls-2 {
        font-family: HelveticaNeue-Thin, 'Helvetica Neue';
        font-size: 38.5px;
        font-weight: 200;
        letter-spacing: .7em;
      }
    </style>
  </defs>
  <!-- Generator: Adobe Illustrator 28.7.2, SVG Export Plug-In . SVG Version: 1.2.0 Build 154)  -->
  <g>
    <g id="Layer_1">
      <g>
        <path class="cls-1" d="M183.9,5.3h57.7c6.1,0,10.4,1.9,14.7,6.1l16.1,16.1c4.3,4.3,6.1,8.5,6.1,14.7v103.1c0,6.1-1.9,10.4-6.1,14.7,0,0-2,2-12.1,12.1-10.1,10.1-10.1,10.1-.2,20.3,9.9,10.1,12.3,12.6,12.3,12.6,4.3,4.3,6.1,8.5,6.1,14.7v108.3c0,6.1-1.9,10.4-6.1,14.7l-16.1,16.1c-4.3,4.3-8.5,6.1-14.7,6.1h-57.2c-6.1,0-10.4-1.9-14.7-6.1l-16.1-16.1c-4.3-4.3-6.1-8.5-6.1-14.7v-50.6c0-7.6,4.3-11.8,11.8-11.8h21.8c7.6,0,11.8,4.3,11.8,11.8v40.2l9.5,9.5h21.3l9.5-9.5v-106l-9.5-9.5h-28.4c-7.6,0-11.8-4.3-11.8-11.8v-16.1c0-7.6,4.3-11.8,11.8-11.8h28.4l9.5-9.5V52.6l-9.5-9.5h-21.8l-9.5,9.5v40.2c0,7.6-4.3,11.8-11.8,11.8h-21.8c-7.6,0-11.8-4.3-11.8-11.8v-50.6c0-6.1,1.9-10.4,6.1-14.7l16.1-16.1c4.3-4.3,8.5-6.1,14.7-6.1Z"/>
        <path class="cls-1" d="M341.9,5.3h56.8c6.1,0,10.4,1.9,14.7,6.1l16.1,16.1c4.3,4.3,6.1,8.5,6.1,14.7v102.6c0,6.1-1.9,10.4-6.1,14.7,0,0-1.9,2-12.1,12.1q-10.2,10.1,0,20.3c10.2,10.2,12.1,12.1,12.1,12.1,4.3,4.3,6.1,8.5,6.1,14.7v109.3c0,6.1-1.9,10.4-6.1,14.7l-16.1,16.1c-4.3,4.3-8.5,6.1-14.7,6.1h-56.8c-6.1,0-10.4-1.9-14.7-6.1l-16.1-16.1c-4.3-4.3-6.1-8.5-6.1-14.7v-109.3c0-6.1,1.9-10.4,6.1-14.7,0,0,2.1-1.9,12.1-12.1q10-10.2,0-20.3c-10-10.1-12.1-12.1-12.1-12.1-4.3-4.3-6.1-8.5-6.1-14.7V42.2c0-6.1,1.9-10.4,6.1-14.7l16.1-16.1c4.3-4.3,8.5-6.1,14.7-6.1ZM380.7,44.1h-20.8l-9.5,9.5v99.3l9.5,9.5h20.8l9.5-9.5V53.6l-9.5-9.5ZM380.7,201.1h-20.8l-9.5,9.5v106l9.5,9.5h20.8l9.5-9.5v-106l-9.5-9.5Z"/>
      </g>
      <text class="cls-2" transform="translate(35.5 462.4)"><tspan x="0" y="0">THIRTYEIGHT</tspan></text>
    </g>
  </g>
</svg>