<svg width="20" height="17" viewBox="0 0 20 17" fill="none" xmlns="http://www.w3.org/2000/svg">
<path d="M12.6562 0.514465C12.9062 0.608215 13.0625 0.889465 12.9688 1.13947L7.96875 16.1395C7.875 16.4207 7.59375 16.5457 7.34375 16.4832C7.0625 16.3895 6.9375 16.1082 7 15.827L12 0.826965C12.0938 0.576965 12.375 0.420715 12.6562 0.514465ZM5.375 4.17072H5.34375C5.53125 4.35822 5.53125 4.70197 5.3125 4.85822L1.25 8.48322L5.3125 12.1395C5.53125 12.2957 5.53125 12.6395 5.375 12.827C5.1875 13.0457 4.875 13.0457 4.65625 12.8582L0.15625 8.85822C0.0625 8.76447 0 8.63947 0 8.48322C0 8.35822 0.0625 8.23322 0.15625 8.13947L4.65625 4.13947C4.875 3.95197 5.1875 3.95197 5.375 4.17072ZM14.625 4.17072C14.8125 3.95197 15.125 3.92072 15.3125 4.10822L19.8125 8.10822C19.9375 8.20197 20 8.35822 20 8.48322C20 8.63947 19.9375 8.76447 19.8125 8.85822L15.3125 12.8582C15.125 13.0457 14.8125 13.0457 14.625 12.827C14.4375 12.6082 14.4375 12.2957 14.6562 12.1082L18.7188 8.48322L14.6562 4.85822C14.4375 4.70197 14.4375 4.35822 14.625 4.17072Z" fill="white"/>
</svg>
