<svg width="14" height="15" viewBox="0 0 14 15" fill="none" xmlns="http://www.w3.org/2000/svg">
<path d="M2 3.48322C2.53125 3.48322 3 3.04572 3 2.48322C3 1.95197 2.53125 1.48322 2 1.48322C1.4375 1.48322 1 1.95197 1 2.48322C1 3.04572 1.4375 3.48322 2 3.48322ZM2 0.483215C2.90625 0.483215 3.6875 1.13947 3.9375 1.98322H10.0625C10.2812 1.13947 11.0625 0.483215 12 0.483215C13.0938 0.483215 14 1.38947 14 2.48322C14 3.42072 13.3438 4.20197 12.5 4.42072V10.5457C13.3438 10.7957 14 11.577 14 12.4832C14 13.6082 13.0938 14.4832 12 14.4832C11.0625 14.4832 10.2812 13.8582 10.0625 12.9832H3.9375C3.6875 13.8582 2.90625 14.4832 2 14.4832C0.875 14.4832 0 13.6082 0 12.4832C0 11.577 0.625 10.7957 1.5 10.5457V4.42072C0.625 4.20197 0 3.42072 0 2.48322C0 1.38947 0.875 0.483215 2 0.483215ZM3.9375 11.9832H10.0625C10.2188 11.2957 10.7812 10.7332 11.5 10.5457V4.42072C10.7812 4.26447 10.2188 3.70197 10.0625 2.98322H3.9375C3.75 3.70197 3.1875 4.26447 2.5 4.42072V10.5457C3.1875 10.7332 3.75 11.2957 3.9375 11.9832ZM3 12.4832C3 11.952 2.53125 11.4832 2 11.4832C1.4375 11.4832 1 11.952 1 12.4832C1 13.0457 1.4375 13.4832 2 13.4832C2.53125 13.4832 3 13.0457 3 12.4832ZM11 12.4832C11 13.0457 11.4375 13.4832 12 13.4832C12.5312 13.4832 13 13.0457 13 12.4832C13 11.952 12.5312 11.4832 12 11.4832C11.4375 11.4832 11 11.952 11 12.4832ZM12 3.48322C12.5312 3.48322 13 3.04572 13 2.48322C13 1.95197 12.5312 1.48322 12 1.48322C11.4375 1.48322 11 1.95197 11 2.48322C11 3.04572 11.4375 3.48322 12 3.48322Z" fill="white"/>
</svg>
