<svg width="14" height="15" viewBox="0 0 14 15" fill="none" xmlns="http://www.w3.org/2000/svg">
<path d="M13.5 5.48322H9.5C9.21875 5.48322 9 5.26447 9 4.98322C9 4.73322 9.21875 4.48322 9.5 4.48322H12.1875C11.1562 2.70197 9.21875 1.48322 7 1.48322C3.6875 1.48322 1 4.17072 1 7.48322C1 10.7957 3.6875 13.4832 7 13.4832C9.09375 13.4832 10.9688 12.3895 12.0312 10.7645C12.125 10.6082 12.3125 10.4832 12.5 10.4832C12.875 10.4832 13.125 10.8895 12.9062 11.2332C11.6875 13.202 9.46875 14.4832 7 14.4832C3.125 14.4832 0 11.3582 0 7.48322C0 3.63947 3.125 0.483215 7 0.483215C9.53125 0.483215 11.75 1.85822 13 3.88947V0.983215C13 0.733215 13.2188 0.483215 13.5 0.483215C13.75 0.483215 14 0.733215 14 0.983215V4.98322C14 5.26447 13.75 5.48322 13.5 5.48322Z" fill="white"/>
</svg>
