<svg width="16" height="17" viewBox="0 0 16 17" fill="none" xmlns="http://www.w3.org/2000/svg">
<path d="M7.3125 0.639465C7.53125 0.545715 7.75 0.483215 8 0.483215C8.21875 0.483215 8.46875 0.545715 8.65625 0.639465L15.4688 3.70197C15.7812 3.82697 16 4.13947 16 4.51447C16 4.85822 15.7812 5.17072 15.4688 5.29572L8.65625 8.35822C8.4375 8.45197 8.21875 8.48322 8 8.48322C7.75 8.48322 7.53125 8.45197 7.3125 8.35822L0.5 5.29572C0.1875 5.17072 0 4.85822 0 4.48322C0 4.13947 0.1875 3.82697 0.5 3.70197L7.3125 0.639465ZM8 1.48322C7.90625 1.48322 7.8125 1.51447 7.71875 1.54572L1.15625 4.48322L7.71875 7.45197C7.8125 7.48322 7.90625 7.48322 8 7.48322C8.09375 7.48322 8.1875 7.48322 8.25 7.45197L14.8125 4.48322L8.25 1.54572C8.1875 1.51447 8.09375 1.48322 8 1.48322ZM0.5 11.702L1.9375 11.0457L3.15625 11.577L1.15625 12.4832L7.71875 15.452C7.8125 15.4832 7.90625 15.4832 8 15.4832C8.09375 15.4832 8.1875 15.4832 8.25 15.452L14.8125 12.4832L12.8125 11.6082L14.0312 11.0457L15.4688 11.702C15.7812 11.827 16 12.1395 16 12.5145C16 12.8582 15.7812 13.1707 15.4688 13.2957L8.65625 16.3582C8.4375 16.452 8.21875 16.4832 8 16.4832C7.75 16.4832 7.53125 16.452 7.3125 16.3582L0.5 13.2957C0.1875 13.1707 0 12.8582 0 12.4832C0 12.1395 0.1875 11.827 0.5 11.702ZM1.9375 7.04572L3.15625 7.57697L1.15625 8.48322L7.71875 11.452C7.8125 11.4832 7.90625 11.4832 8 11.4832C8.09375 11.4832 8.1875 11.4832 8.25 11.452L14.8125 8.48322L12.8125 7.60822L14.0312 7.04572L15.4688 7.70197C15.7812 7.82697 16 8.13947 16 8.51447C16 8.85822 15.7812 9.17072 15.4688 9.29572L8.65625 12.3582C8.4375 12.452 8.21875 12.4832 8 12.4832C7.75 12.4832 7.53125 12.452 7.3125 12.3582L0.5 9.29572C0.1875 9.17072 0 8.85822 0 8.48322C0 8.13947 0.1875 7.82697 0.5 7.70197L1.9375 7.04572Z" fill="#FFA88B"/>
</svg>
